<?xml version="1.0" standalone="no"?><!DOCTYPE svg PUBLIC "-//W3C//DTD SVG 1.1//EN" "http://www.w3.org/Graphics/SVG/1.1/DTD/svg11.dtd"><svg t="1669529951087" class="icon" viewBox="0 0 1024 1024" version="1.1" xmlns="http://www.w3.org/2000/svg" p-id="12808" xmlns:xlink="http://www.w3.org/1999/xlink" width="200" height="200"><path d="M159.218 210.584l146.483 328.657c0.171 0.422 0.341 0.763 0.512 1.104l132.436 296.978c4.94 11.067 15.752 17.626 27.167 17.626 4.089 0 8.175-0.849 12.093-2.554 14.987-6.726 21.716-24.273 15.075-39.26L366.087 528.682c0.042-0.078 0.086-0.152 0.129-0.229l-168.531-373.04c-17.2 10.37-27.559 18.103-29.269 19.399-10.986 8.347-14.82 23.167-9.198 35.772z" fill="#CED6DA" p-id="12809"></path><path d="M926.061 702.333c-49.566-82.74-213.153-140.185-418.684-140.185-16.439 0-29.721 13.288-29.721 29.725s13.282 29.721 29.721 29.721c176.263 0 315.927 47.873 360.08 100.15 9.565 11.326 14.652 22.858 14.652 34.156 0 63.451-160.281 134.309-374.732 134.309-214.45 0-374.731-70.857-374.731-134.309 0-32.02 43.349-67.79 113.099-93.513 15.417-5.704 23.337-22.737 17.633-38.151-5.624-15.417-22.74-23.334-38.155-17.63C127.193 642.715 73.2 695.773 73.2 755.9c0 110.463 186.683 193.754 434.177 193.754S941.554 866.363 941.554 755.9c0-18.728-5.373-36.674-15.493-53.567z" fill="#93CDEA" p-id="12810"></path><path d="M600.379 428.003c34.744 2.382 64.723 4.511 89.507-4.346C841.485 369.492 882.108 239 882.108 147c0-55.765-17.372-98.008-17.372-98.008s-22.315 29.06-31.432 39.536c-0.849 1.023-93.937 100.839-272.531 24.955-152.195-64.848-298.335 4.695-359.086 41.323l168.531 373.039c61.314-111.587 150.839-105.378 230.161-99.842z" fill="#2E8ECE" p-id="12811"></path></svg>