<?xml version="1.0" standalone="no"?><!DOCTYPE svg PUBLIC "-//W3C//DTD SVG 1.1//EN" "http://www.w3.org/Graphics/SVG/1.1/DTD/svg11.dtd"><svg t="1669529930853" class="icon" viewBox="0 0 1024 1024" version="1.1" xmlns="http://www.w3.org/2000/svg" p-id="12514" xmlns:xlink="http://www.w3.org/1999/xlink" width="200" height="200"><path d="M953.936842 60.901053a87.309474 87.309474 0 0 0-68.176842-22.096842 632.185263 632.185263 0 0 0-172.732632 44.193684 718.147368 718.147368 0 0 0-140.934736 80.842105 201.835789 201.835789 0 0 0-85.153685 163.84v463.494737a26.947368 26.947368 0 0 0 53.894737 0V327.410526a147.132632 147.132632 0 0 1 62.517895-119.915789 646.736842 646.736842 0 0 1 129.886316-74.374737 567.242105 567.242105 0 0 1 158.450526-40.690526 36.378947 36.378947 0 0 1 26.947368 8.353684 31.797895 31.797895 0 0 1 10.509474 23.44421v586.913685a47.157895 47.157895 0 0 1-42.307368 45.810526 611.705263 611.705263 0 0 0-152.791579 35.301053 1317.187368 1317.187368 0 0 0-219.890527 134.736842c-37.995789-26.947368-152.252632-109.675789-223.12421-137.701053A637.035789 637.035789 0 0 0 137.701053 754.526316a47.157895 47.157895 0 0 1-42.307369-45.810527V121.802105a30.72 30.72 0 0 1 10.509474-23.174737 34.223158 34.223158 0 0 1 26.947368-8.353684 563.2 563.2 0 0 1 158.181053 40.421053 630.837895 630.837895 0 0 1 121.263158 68.446316 26.947368 26.947368 0 0 0 15.36 4.581052 26.947368 26.947368 0 0 0 22.096842-11.587368 26.947368 26.947368 0 0 0-6.736842-37.456842A675.84 675.84 0 0 0 310.972632 80.842105a630.568421 630.568421 0 0 0-172.463158-44.193684 87.04 87.04 0 0 0-68.446316 21.827368 85.423158 85.423158 0 0 0-28.564211 63.326316V708.715789A101.052632 101.052632 0 0 0 131.503158 808.421053 575.056842 575.056842 0 0 1 269.473684 839.949474c77.338947 30.450526 222.046316 139.048421 223.393684 140.126315a21.827368 21.827368 0 0 0 4.850527 2.694737 26.947368 26.947368 0 0 0 15.090526 5.12 26.947368 26.947368 0 0 0 16.168421-5.389473s146.054737-109.675789 223.393684-140.39579a598.501053 598.501053 0 0 1 139.048421-31.797895 100.783158 100.783158 0 0 0 90.004211-99.166315V124.227368a85.153684 85.153684 0 0 0-27.486316-63.326315z" p-id="12515"></path><path d="M398.282105 424.690526a26.947368 26.947368 0 0 1-14.551579-4.042105 565.894737 565.894737 0 0 0-90.543158-47.966316 598.231579 598.231579 0 0 0-113.448421-33.953684 26.947368 26.947368 0 0 1-21.288421-31.528421 26.947368 26.947368 0 0 1 31.528421-21.288421A649.970526 649.970526 0 0 1 313.397895 323.368421a616.286316 616.286316 0 0 1 99.166316 52.277895 26.947368 26.947368 0 0 1-14.282106 49.583158zM629.490526 427.385263a26.947368 26.947368 0 0 1-14.551579-50.122105 628.412632 628.412632 0 0 1 99.43579-52.277895 638.652632 638.652632 0 0 1 123.418947-36.917895 26.947368 26.947368 0 0 1 9.970527 53.894737 602.543158 602.543158 0 0 0-113.448422 33.684211 575.326316 575.326316 0 0 0-90.273684 47.427368 26.947368 26.947368 0 0 1-14.551579 4.311579zM398.282105 611.974737a26.947368 26.947368 0 0 1-14.551579-4.311579 565.894737 565.894737 0 0 0-90.543158-47.966316 598.231579 598.231579 0 0 0-113.448421-33.953684 26.947368 26.947368 0 0 1-21.288421-31.528421 26.947368 26.947368 0 0 1 31.528421-21.288421 649.970526 649.970526 0 0 1 123.418948 36.917895 616.286316 616.286316 0 0 1 99.166316 52.277894 26.947368 26.947368 0 0 1-14.282106 49.852632z" p-id="12516"></path></svg>